<?xml version="1.0" standalone="no"?>
<!DOCTYPE svg PUBLIC "-//W3C//DTD SVG 20010904//EN"
 "http://www.w3.org/TR/2001/REC-SVG-20010904/DTD/svg10.dtd">
<svg version="1.0" xmlns="http://www.w3.org/2000/svg"
 width="5001.000000pt" height="2916.000000pt" viewBox="0 0 5001.000000 2916.000000"
 preserveAspectRatio="xMidYMid meet">

<g transform="translate(0.000000,2916.000000) scale(0.100000,-0.100000)"
fill="#000000" stroke="none">
<path d="M0 20207 l0 -8942 288 -139 c3336 -1617 6271 -2923 9157 -4078 6782
-2713 12516 -4221 17085 -4493 942 -56 1933 -59 2750 -10 4156 252 7117 1730
8941 4462 407 611 709 1189 1036 1988 652 1589 1163 2719 1824 4035 981 1955
1951 3554 2998 4945 1153 1531 2376 2684 3466 3265 55 29 177 104 270 165 94
62 210 136 260 165 49 29 153 98 230 155 77 56 196 139 265 185 69 46 168 118
220 160 80 65 323 249 397 300 11 8 78 65 148 125 70 61 191 162 270 225 79
63 199 167 268 230 l126 115 0 3043 1 3042 -25000 0 -25000 0 0 -8943z"/>
<path d="M49940 22989 c-30 -26 -50 -49 -45 -49 14 0 111 86 105 93 -3 3 -30
-17 -60 -44z"/>
<path d="M49871 22858 c-60 -67 -109 -124 -107 -125 9 -9 199 103 216 127 21
29 29 120 11 120 -5 0 -59 -55 -120 -122z"/>
<path d="M49789 22836 c-46 -35 -122 -103 -169 -150 l-85 -87 82 46 c77 44
124 88 247 233 30 35 15 27 -75 -42z"/>
<path d="M49961 22803 c-31 -27 -240 -298 -231 -301 4 -2 51 10 104 26 95 28
97 29 131 80 33 48 35 56 35 132 0 44 -4 80 -9 80 -5 0 -18 -8 -30 -17z"/>
<path d="M49807 22728 c-94 -48 -101 -54 -208 -179 -61 -72 -109 -132 -107
-134 2 -3 47 12 100 33 l96 37 112 144 c61 79 110 145 108 146 -2 2 -47 -19
-101 -47z"/>
<path d="M49453 22573 c-87 -72 -103 -95 -31 -45 40 28 128 112 117 112 -2 0
-41 -30 -86 -67z"/>
<path d="M49560 22589 c-59 -35 -119 -84 -197 -162 -62 -61 -113 -115 -113
-118 0 -4 42 12 94 35 91 41 96 45 187 152 108 126 123 144 118 144 -2 0 -42
-23 -89 -51z"/>
<path d="M49976 22595 c-16 -24 -16 -25 4 -25 15 0 20 7 20 25 0 14 -2 25 -4
25 -2 0 -11 -11 -20 -25z"/>
<path d="M49951 22537 c-25 -12 -268 -354 -259 -363 3 -2 49 -1 104 3 l99 8
52 80 53 80 0 103 c0 109 -2 113 -49 89z"/>
<path d="M49800 22498 c-52 -17 -101 -35 -108 -41 -20 -16 -245 -318 -240
-322 2 -2 49 3 105 13 l102 17 116 169 c106 153 134 198 124 195 -2 0 -47 -14
-99 -31z"/>
<path d="M49280 22411 c-47 -32 -123 -95 -170 -140 l-85 -82 80 40 c61 30 96
57 150 113 80 82 121 128 114 127 -2 0 -42 -26 -89 -58z"/>
<path d="M49543 22407 l-102 -42 -115 -140 c-63 -77 -115 -143 -116 -146 0 -4
47 5 104 20 l104 26 112 150 c101 135 129 177 119 174 -2 0 -50 -19 -106 -42z"/>
<path d="M49285 22296 c-85 -40 -96 -49 -202 -166 -62 -68 -111 -125 -110
-126 1 -2 47 11 102 28 l100 31 112 139 c62 76 107 138 100 138 -6 -1 -52 -20
-102 -44z"/>
<path d="M49958 22252 l-38 -57 36 -3 c20 -2 38 -1 41 1 2 3 3 30 1 60 l-3 56
-37 -57z"/>
<path d="M48943 22167 c-87 -67 -100 -85 -31 -44 37 22 131 107 118 107 -3 0
-42 -28 -87 -63z"/>
<path d="M49035 22169 c-68 -38 -115 -74 -192 -151 -56 -56 -101 -103 -100
-105 2 -1 44 14 94 34 91 36 92 36 198 154 58 66 102 119 98 119 -4 0 -48 -23
-98 -51z"/>
<path d="M49925 22161 c-25 -5 -47 -34 -157 -209 -79 -126 -123 -204 -115
-206 25 -8 199 -28 203 -23 2 2 36 57 74 122 l70 117 0 104 c0 116 3 112 -75
95z"/>
<path d="M49740 22153 c-75 -7 -75 -8 -205 -199 -70 -102 -125 -187 -123 -189
2 -2 51 -7 108 -10 l105 -6 72 118 c40 65 98 157 128 206 l55 87 -53 -2 c-28
0 -68 -3 -87 -5z"/>
<path d="M49518 22121 c-59 -11 -94 -23 -107 -36 -25 -26 -242 -328 -238 -331
2 -2 51 0 109 3 l107 6 125 188 c90 135 121 189 109 188 -10 -1 -57 -9 -105
-18z"/>
<path d="M49262 22066 c-46 -13 -87 -27 -91 -32 -44 -48 -232 -296 -228 -300
7 -7 200 16 208 24 4 4 55 75 114 157 59 83 112 156 118 163 14 18 -24 14
-121 -12z"/>
<path d="M48767 22015 c-67 -42 -259 -196 -253 -203 2 -2 41 15 87 36 70 33
98 54 169 126 46 47 80 86 75 85 -6 0 -41 -20 -78 -44z"/>
<path d="M49030 21996 l-95 -32 -117 -134 c-65 -73 -118 -136 -118 -140 0 -4
46 2 103 13 l102 20 115 146 c63 79 117 148 118 153 5 12 -3 10 -108 -26z"/>
<path d="M48780 21904 c-78 -33 -94 -44 -202 -152 -65 -64 -118 -120 -118
-123 0 -4 45 5 100 20 l100 27 115 132 c63 73 110 132 103 132 -7 -1 -51 -17
-98 -36z"/>
<path d="M49933 21820 l-63 -105 60 -14 c33 -8 62 -12 65 -9 3 3 4 57 3 119
l-3 114 -62 -105z"/>
<path d="M48427 21789 c-48 -33 -87 -62 -87 -65 0 -11 99 49 140 85 25 22 42
41 39 41 -3 0 -45 -27 -92 -61z"/>
<path d="M48515 21785 c-73 -35 -110 -62 -193 -139 -56 -53 -99 -96 -95 -96 5
0 49 14 100 31 l92 30 102 110 c56 60 97 109 93 108 -5 0 -49 -20 -99 -44z"/>
<path d="M49208 21733 l-57 -4 -139 -197 c-2140 -3040 -4907 -7935 -9394
-16617 -238 -462 -456 -889 -483 -950 -86 -193 -329 -673 -451 -890 -632
-1132 -1414 -2098 -2352 -2904 l-194 -166 359 -3 358 -3 108 113 c489 511 860
974 1242 1548 336 505 633 1037 903 1615 43 94 208 415 367 715 3895 7370
5331 10032 6924 12839 1080 1902 2189 3738 2893 4788 37 56 68 107 68 113 0
10 -30 10 -152 3z"/>
<path d="M49358 21689 c-19 -30 -96 -146 -170 -259 -869 -1320 -2031 -3272
-3350 -5630 -1321 -2361 -2743 -5000 -5360 -9950 -1169 -2211 -1283 -2427
-1358 -2590 -525 -1128 -1170 -2105 -1946 -2950 -78 -85 -174 -186 -213 -225
-39 -38 -71 -73 -71 -77 0 -5 129 -8 288 -8 l287 1 90 111 c614 759 1150 1619
1555 2498 24 52 232 444 461 870 715 1331 1338 2493 2134 3980 1616 3021 1851
3461 2313 4320 2570 4790 4120 7557 5380 9607 106 172 195 319 198 328 5 12
-2 15 -32 15 -22 0 -69 3 -105 6 l-67 7 -34 -54z"/>
<path d="M49006 21714 c-55 -7 -102 -17 -105 -21 -3 -5 -119 -159 -257 -343
-1992 -2657 -4464 -6882 -7767 -13275 -693 -1342 -1619 -3170 -1746 -3447
-671 -1463 -1508 -2624 -2601 -3609 -341 -308 -699 -585 -1124 -871 l-220
-148 456 0 455 0 124 103 c955 798 1751 1761 2410 2915 131 229 399 754 499
977 30 66 111 230 181 365 2650 5122 4272 8159 5857 10965 1412 2501 2733
4651 3752 6104 191 272 210 302 194 300 -5 -1 -54 -7 -108 -15z"/>
<path d="M49512 21543 c-944 -1526 -2144 -3625 -3659 -6403 -862 -1580 -1636
-3019 -3623 -6735 -1310 -2450 -1998 -3733 -2785 -5195 -149 -278 -295 -557
-324 -620 -260 -564 -642 -1233 -1005 -1760 -165 -240 -487 -666 -614 -812
-14 -17 -2 -18 231 -18 l246 0 89 127 c338 481 639 996 945 1613 99 201 251
493 337 650 1362 2474 2838 5212 5320 9865 2766 5186 4023 7484 5054 9239 64
109 115 200 114 201 -6 6 -148 25 -181 25 -34 0 -37 -3 -145 -177z"/>
<path d="M48248 21646 c-68 -39 -248 -171 -248 -182 0 -2 24 6 53 17 28 12 66
26 83 33 31 11 217 176 199 176 -6 0 -45 -20 -87 -44z"/>
<path d="M48741 21672 l-75 -17 -84 -100 c-47 -55 -192 -233 -322 -396 -1988
-2482 -4439 -6579 -7362 -12304 -601 -1177 -1608 -3200 -1733 -3480 -504
-1132 -1116 -2088 -1879 -2935 -167 -186 -510 -529 -696 -696 -724 -653 -1562
-1212 -2454 -1639 -109 -52 -201 -97 -204 -100 -3 -3 270 -5 607 -5 l612 0
224 150 c1658 1111 2898 2608 3769 4549 81 181 1092 2172 1693 3336 3329 6442
5793 10655 7799 13333 273 364 265 339 105 304z"/>
<path d="M49705 21432 c-1202 -2069 -2147 -3800 -5192 -9507 -2400 -4497
-3624 -6768 -5005 -9285 -167 -305 -386 -719 -486 -920 -300 -606 -585 -1094
-913 -1567 -55 -78 -99 -144 -99 -147 0 -3 93 -6 208 -6 l207 0 97 163 c171
287 315 554 497 917 98 195 261 504 363 685 1774 3162 3801 6918 6608 12245
2295 4355 3142 5942 3867 7243 l144 259 -3 76 -3 77 -50 11 c-92 22 -76 38
-240 -244z"/>
<path d="M48511 21615 c-96 -27 -92 -24 -270 -220 -1921 -2113 -4160 -5639
-6738 -10610 -408 -787 -1152 -2266 -1453 -2890 -37 -77 -147 -304 -245 -505
-292 -602 -591 -1230 -666 -1403 -39 -89 -133 -288 -209 -442 -827 -1675
-1970 -2995 -3440 -3974 -827 -551 -1712 -975 -2735 -1311 -207 -67 -638 -194
-805 -236 l-75 -19 992 -3 992 -2 183 86 c1487 695 2745 1696 3731 2967 507
654 995 1473 1337 2242 180 405 1425 2898 2133 4270 2884 5591 5313 9579 7269
11933 79 95 112 142 101 141 -10 0 -56 -11 -102 -24z"/>
<path d="M48256 21536 l-90 -33 -215 -214 c-2397 -2381 -5208 -6945 -8226
-13359 -278 -591 -486 -1042 -606 -1315 -101 -231 -315 -661 -439 -885 -366
-658 -778 -1247 -1267 -1809 -163 -188 -666 -691 -854 -854 -398 -346 -775
-629 -1199 -899 -2978 -1896 -7265 -2392 -12800 -1482 -5169 849 -11356 2884
-18630 6127 -1158 516 -2468 1120 -3515 1622 -215 102 -396 189 -403 192 -10
4 -12 -81 -10 -423 l3 -427 335 -159 c5107 -2427 9993 -4401 14160 -5722 2653
-840 4979 -1430 7262 -1841 l307 -55 4850 0 4849 0 159 41 c2502 646 4463
1886 5873 3714 509 661 971 1442 1328 2250 88 198 276 595 605 1275 2659 5501
5079 9726 7152 12485 474 631 902 1156 1296 1588 180 198 195 217 178 216 -8
0 -54 -15 -103 -33z"/>
<path d="M47910 21444 c-75 -49 -80 -65 -10 -29 25 13 109 84 100 84 -3 0 -43
-25 -90 -55z"/>
<path d="M48007 21440 c-63 -28 -114 -60 -175 -112 -413 -347 -907 -836 -1355
-1341 -2308 -2598 -4844 -6976 -7358 -12702 -293 -669 -692 -1370 -1102 -1938
-1892 -2621 -4878 -4058 -8962 -4312 -841 -52 -1820 -52 -2760 0 -6478 362
-15096 3114 -25842 8254 -243 116 -444 211 -447 211 -3 0 -6 -190 -6 -422 l0
-423 158 -75 c86 -40 308 -146 492 -233 6006 -2853 11454 -4986 16155 -6325
5252 -1497 9627 -2036 13153 -1622 2416 285 4421 1023 6007 2213 1066 799
1931 1786 2623 2991 186 324 431 814 564 1126 214 502 1070 2298 1664 3490
1204 2416 2268 4348 3375 6126 1309 2104 2510 3700 3668 4876 140 142 250 258
245 257 -5 0 -49 -18 -97 -39z"/>
<path d="M49866 21239 c-815 -1474 -1560 -2868 -3581 -6704 -1107 -2101 -1512
-2867 -2178 -4120 -1646 -3097 -3247 -6043 -4590 -8445 -171 -305 -390 -715
-488 -910 -180 -360 -323 -623 -485 -895 -49 -83 -91 -153 -92 -158 -2 -4 78
-6 179 -5 l183 3 196 385 c108 212 309 583 447 825 1272 2234 2785 4987 4228
7690 1083 2029 2106 3982 3720 7105 1499 2899 1807 3494 2282 4400 146 278
276 525 289 550 24 44 24 48 22 279 l-3 234 -129 -234z"/>
<path d="M47752 21325 c-88 -41 -260 -165 -517 -370 -830 -666 -1711 -1613
-2581 -2775 -1801 -2406 -3572 -5647 -5336 -9763 -329 -768 -484 -1091 -725
-1510 -897 -1557 -2089 -2737 -3638 -3602 -694 -387 -1504 -718 -2363 -965
-3084 -885 -7091 -786 -11982 296 -5620 1243 -12369 3766 -20288 7583 -173 83
-316 151 -318 151 -2 0 -3 -190 -2 -421 l3 -421 270 -130 c9783 -4696 17813
-7419 24095 -8172 1722 -207 3367 -261 4835 -160 2968 204 5370 1057 7170
2548 409 339 880 810 1227 1228 618 741 1172 1664 1578 2623 67 159 365 823
570 1270 2110 4605 4231 8253 6194 10654 204 249 441 526 654 761 231 256 782
807 996 996 216 190 242 213 236 213 -3 0 -38 -15 -78 -34z"/>
<path d="M47407 21140 c-1299 -745 -2696 -2198 -4063 -4225 -1407 -2087 -2746
-4689 -4031 -7829 -182 -445 -283 -672 -434 -976 -769 -1542 -1822 -2755
-3183 -3665 -1035 -692 -2240 -1200 -3617 -1525 -812 -192 -1691 -320 -2634
-385 -498 -33 -713 -40 -1420 -40 -729 0 -947 6 -1575 46 -5534 345 -12728
2481 -21465 6372 -1424 634 -3056 1393 -4435 2062 -201 97 -407 197 -458 221
l-92 43 2 -421 3 -422 265 -128 c6538 -3160 12386 -5470 17380 -6866 5682
-1589 10305 -2023 13870 -1301 3289 666 5656 2306 7125 4934 216 387 343 655
665 1405 1774 4137 3553 7386 5361 9790 932 1241 1897 2256 2749 2895 111 83
109 85 -13 15z"/>
<path d="M49743 20484 c-395 -753 -936 -1795 -1783 -3434 -1520 -2942 -2093
-4046 -2883 -5550 -1948 -3712 -3690 -6913 -5542 -10185 -201 -355 -438 -790
-533 -978 l-171 -337 162 0 162 1 104 182 c57 100 280 490 496 867 2152 3755
4244 7619 6507 12020 777 1511 1457 2849 2878 5670 353 701 691 1372 751 1491
l109 216 -2 258 -3 259 -252 -480z"/>
<path d="M49788 19993 c-113 -224 -509 -1009 -878 -1743 -1893 -3758 -2994
-5908 -4213 -8225 -1771 -3366 -3609 -6709 -5281 -9603 -125 -217 -230 -400
-233 -408 -4 -12 24 -14 180 -14 l185 0 303 523 c2258 3894 4471 7982 6736
12442 924 1819 1787 3556 3054 6143 l359 734 -2 279 -3 280 -207 -408z"/>
<path d="M49840 19481 c-3285 -6724 -5537 -11080 -8113 -15696 -633 -1134
-1907 -3370 -2139 -3753 l-20 -32 193 2 193 3 134 230 c3274 5604 6242 11272
9713 18547 l199 418 -2 298 -3 299 -155 -316z"/>
<path d="M49771 18684 c-769 -1610 -1446 -3006 -2078 -4288 -2475 -5013 -4897
-9543 -7441 -13916 -145 -250 -267 -460 -269 -467 -4 -11 32 -13 187 -11 l193
3 97 165 c378 644 1151 1989 1582 2755 2063 3664 3972 7315 5955 11390 559
1148 1129 2344 1872 3930 l131 279 -2 315 -3 315 -224 -470z"/>
<path d="M49751 17957 c-3030 -6479 -6003 -12193 -9149 -17579 l-220 -378 196
0 197 0 129 223 c3221 5528 5927 10743 8808 16976 l288 625 -2 328 -3 328
-244 -523z"/>
<path d="M49893 17557 c-1452 -3169 -3077 -6495 -4636 -9487 -1332 -2556
-2750 -5132 -4161 -7553 -163 -280 -296 -511 -296 -513 0 -2 88 -3 197 -2
l196 3 279 480 c1400 2406 2755 4873 4076 7420 774 1493 1781 3514 2545 5105
544 1134 1163 2458 1723 3688 l184 404 -2 339 -3 339 -102 -223z"/>
<path d="M49890 16826 c-2687 -5922 -5563 -11503 -8613 -16713 l-66 -113 198
0 199 0 208 357 c2858 4917 5532 10130 8020 15641 l164 363 -2 348 -3 347
-105 -230z"/>
<path d="M49966 16250 c-214 -480 -834 -1834 -1174 -2560 -1333 -2851 -2779
-5740 -4210 -8410 -748 -1397 -1521 -2792 -2277 -4110 -204 -356 -607 -1054
-672 -1162 -2 -5 86 -8 195 -8 l199 0 216 372 c2277 3944 4355 7920 6322
12103 418 890 796 1709 1197 2600 l238 529 -2 356 -3 355 -29 -65z"/>
<path d="M49984 15535 c-7 -16 -104 -235 -217 -485 -2347 -5209 -4835 -10071
-7586 -14820 l-130 -225 196 -3 c151 -2 199 1 205 10 34 55 567 986 758 1323
2395 4236 4607 8621 6649 13186 l141 316 -2 364 c-2 285 -5 357 -14 334z"/>
<path d="M49876 14522 c-2175 -4874 -4698 -9829 -7291 -14317 -51 -88 -98
-170 -104 -182 l-12 -23 199 0 198 0 184 323 c2469 4319 4672 8656 6736 13260
l214 477 -2 365 -3 365 -119 -268z"/>
<path d="M49972 13961 c-13 -29 -101 -227 -197 -440 -2027 -4521 -4290 -8980
-6674 -13145 -116 -203 -211 -371 -211 -373 0 -2 89 -3 198 -3 l197 1 69 122
c38 67 174 306 301 532 2220 3922 4300 8050 6229 12361 l116 260 -2 370 -3
369 -23 -54z"/>
<path d="M49881 12972 c-1864 -4189 -4059 -8535 -6362 -12595 -115 -202 -209
-369 -209 -372 0 -3 89 -4 197 -3 l196 3 142 250 c2091 3693 4069 7604 5891
11645 l264 585 -2 372 -3 372 -114 -257z"/>
<path d="M49943 12321 c-168 -381 -645 -1428 -961 -2106 -1588 -3414 -3385
-6908 -5163 -10043 l-98 -172 198 0 197 0 89 158 c2054 3664 3888 7300 5611
11126 l184 408 -2 374 -3 375 -52 -120z"/>
<path d="M49901 11434 c-1268 -2824 -2612 -5578 -4029 -8254 -522 -988 -1265
-2349 -1676 -3074 -31 -54 -56 -100 -56 -102 0 -3 88 -3 197 -2 l196 3 139
250 c978 1756 1848 3408 2806 5325 911 1822 1591 3251 2421 5090 l101 225 -2
374 -3 375 -94 -210z"/>
<path d="M49871 10570 c-1484 -3283 -3015 -6360 -4724 -9490 -177 -325 -551
-1001 -579 -1047 l-20 -33 199 0 198 1 184 337 c1764 3224 3216 6121 4655
9283 l216 476 -2 375 -3 374 -124 -276z"/>
<path d="M49860 9752 c-735 -1623 -1413 -3044 -2242 -4702 -855 -1712 -1597
-3127 -2469 -4711 -93 -168 -171 -313 -175 -322 -6 -15 11 -17 187 -17 l194 1
237 437 c1607 2966 3012 5783 4314 8655 l94 207 -2 374 -3 374 -135 -296z"/>
<path d="M49901 9043 c-711 -1563 -1337 -2873 -2168 -4533 -781 -1562 -1352
-2656 -2154 -4132 -104 -191 -192 -354 -195 -363 -6 -14 13 -15 186 -13 l193
3 119 220 c1381 2547 2787 5363 3984 7983 l134 294 -2 374 -3 374 -94 -207z"/>
<path d="M49861 8158 c-1033 -2259 -2267 -4757 -3434 -6953 -215 -406 -592
-1107 -624 -1163 l-25 -42 194 0 194 0 71 133 c222 414 309 577 480 902 1096
2076 2145 4199 3129 6334 l154 333 -2 375 -3 375 -134 -294z"/>
<path d="M0 7323 l1 -428 127 -59 c70 -33 318 -149 552 -259 6491 -3043 12258
-5212 17250 -6486 l354 -91 1821 1 c1001 0 1816 2 1810 5 -5 2 -172 33 -370
69 -5772 1053 -12911 3585 -21228 7529 -169 80 -310 146 -313 146 -2 0 -4
-192 -4 -427z"/>
<path d="M49964 7585 c-73 -161 -505 -1089 -677 -1450 -953 -2012 -1951 -3991
-2953 -5858 -79 -147 -144 -270 -144 -272 0 -3 85 -5 189 -5 l189 0 90 167
c460 861 939 1791 1510 2933 681 1361 1070 2166 1653 3419 l179 385 -2 375 -3
376 -31 -70z"/>
<path d="M2 6440 l3 -431 300 -140 c5438 -2547 10236 -4434 14717 -5788 l268
-81 1442 2 1443 3 -150 38 c-4566 1158 -9767 3061 -15615 5712 -690 313 -1713
787 -2264 1049 -76 36 -141 66 -143 66 -2 0 -2 -194 -1 -430z"/>
<path d="M49895 6640 c-584 -1260 -1070 -2267 -1717 -3560 -520 -1039 -1181
-2323 -1545 -2998 l-45 -82 192 2 192 3 77 145 c793 1487 1947 3807 2785 5602
l166 356 -2 374 -3 373 -100 -215z"/>
<path d="M49830 5707 c-505 -1082 -882 -1858 -1492 -3077 -532 -1065 -997
-1973 -1300 -2538 l-50 -92 192 2 191 3 128 245 c724 1383 1622 3194 2332
4704 l169 359 -2 373 -3 372 -165 -351z"/>
<path d="M2 5549 l3 -432 170 -79 c4361 -2034 8197 -3596 11999 -4889 l439
-149 1291 2 1291 3 -195 59 c-4173 1253 -8813 3060 -13930 5424 -322 149 -686
318 -809 376 -123 58 -233 108 -243 112 -18 5 -18 -10 -16 -427z"/>
<path d="M49946 5160 c-760 -1621 -1613 -3347 -2376 -4810 -65 -124 -132 -253
-149 -287 l-31 -63 187 0 188 0 149 288 c534 1030 1410 2802 1957 3960 l129
273 -2 371 -3 372 -49 -104z"/>
<path d="M2 4655 l3 -436 390 -180 c3270 -1511 6474 -2845 9404 -3913 l345
-126 1195 1 1196 0 -275 95 c-1179 404 -1629 563 -2425 856 -2963 1091 -6088
2401 -9458 3967 -203 94 -371 171 -373 171 -2 0 -3 -196 -2 -435z"/>
<path d="M49866 4198 c-578 -1220 -1332 -2746 -1905 -3855 -94 -182 -171 -334
-171 -337 0 -3 83 -6 184 -6 l184 0 140 273 c396 772 1082 2158 1498 3029
l204 427 -2 371 -3 372 -129 -274z"/>
<path d="M2 3753 l3 -437 215 -99 c2592 -1192 4990 -2211 7416 -3151 l170 -66
1130 2 1129 3 -285 104 c-2922 1066 -6001 2346 -9281 3857 -267 123 -489 224
-493 224 -3 0 -5 -197 -4 -437z"/>
<path d="M49899 3479 c-292 -617 -654 -1355 -1155 -2357 l-562 -1122 185 2
185 3 189 370 c215 423 779 1566 1065 2162 l194 404 -2 370 -3 371 -96 -203z"/>
<path d="M0 2849 l0 -444 518 -235 c1650 -748 3219 -1426 4718 -2039 l321
-131 1087 2 1088 3 -294 114 c-2129 824 -4614 1879 -6973 2961 -242 111 -446
204 -452 207 -10 4 -13 -87 -13 -438z"/>
<path d="M49811 2508 c-265 -551 -695 -1424 -989 -2005 l-253 -503 186 0 186
0 364 733 c200 402 438 887 529 1076 l166 344 -2 369 -3 369 -184 -383z"/>
<path d="M0 1936 l0 -443 478 -216 c837 -378 1595 -711 2416 -1063 l498 -214
1046 2 1046 3 -459 189 c-1458 599 -3050 1289 -4505 1951 -250 114 -470 213
-487 221 l-33 14 0 -444z"/>
<path d="M49831 1764 c-91 -186 -323 -660 -517 -1051 l-352 -713 182 0 183 0
268 543 c148 298 299 607 337 685 l68 144 -2 365 -3 366 -164 -339z"/>
<path d="M0 1020 l0 -447 93 -43 c50 -23 338 -152 639 -286 l548 -244 1022 2
1022 3 -242 103 c-651 275 -2037 885 -2774 1220 l-308 140 0 -448z"/>
<path d="M49936 1199 c-33 -68 -178 -364 -323 -658 -144 -294 -263 -536 -263
-538 0 -1 82 -3 183 -2 l182 0 143 292 143 292 -3 369 -3 370 -59 -125z"/>
<path d="M0 270 l0 -270 607 0 c333 0 604 2 602 4 -2 2 -231 105 -509 229
-278 123 -545 243 -594 266 -49 22 -93 41 -97 41 -5 0 -9 -121 -9 -270z"/>
<path d="M49863 270 l-132 -270 135 0 134 0 0 270 c0 149 -1 270 -2 270 -2 0
-62 -122 -135 -270z"/>
</g>
</svg>
